<?xml version="1.0" encoding="utf-8"?>
<!-- Generator: Adobe Illustrator 23.0.3, SVG Export Plug-In . SVG Version: 6.00 Build 0)  -->
<svg version="1.1" id="Calque_1" xmlns="http://www.w3.org/2000/svg" xmlns:xlink="http://www.w3.org/1999/xlink" x="0px" y="0px"
	 viewBox="0 0 250 56" style="enable-background:new 0 0 250 56;" xml:space="preserve">
<style type="text/css">
	.st0{fill:none;}
	.st1{fill:#FFFFFF;}
	.st2{fill:#1FCF77;}
</style>
<rect y="0.3" class="st0" width="250" height="55.3"/>
<g>
	<g>
		<path class="st1" d="M62.1,15.2h13.1l-0.7,3.9h-9l-0.9,4.7h7l-0.7,3.9h-7l-1.7,9.5h-4L62.1,15.2z"/>
		<path class="st1" d="M78.2,15.2h4l-3.9,21.9h-4L78.2,15.2z"/>
		<path class="st1" d="M87.2,15.2h13.1l-0.7,3.9h-9l-0.9,4.7h7L96,27.6h-7l-1.7,9.5h-4L87.2,15.2z"/>
		<path class="st1" d="M107,19.1h-6l0.7-3.9h15.9l-0.7,3.9h-6l-3.2,18h-4L107,19.1z"/>
		<path class="st1" d="M123.8,27.4l-5.2-12.2h4.3l3.6,8.8l6.5-8.8h4.3l-9.5,12.2l-1.7,9.7h-4L123.8,27.4z"/>
		<path class="st1" d="M150.6,19.1h-6l0.7-3.9h15.9l-0.7,3.9h-6l-3.2,18h-4L150.6,19.1z"/>
		<path class="st1" d="M164.6,15.2h7.3c2.2,0,3.9,0.5,5.1,1.4c1.2,0.9,1.8,2.3,1.8,4.2c0,3-1.6,5.3-4.8,7.1l3.1,9.2h-4.2L170,29
			h-3.8l-1.4,8.1h-4L164.6,15.2z M170,25.2c1.3,0,2.4-0.4,3.2-1.1c0.9-0.7,1.3-1.7,1.3-3c0-1.8-1-2.6-3-2.6H168l-1.2,6.7H170z"/>
		<path class="st1" d="M183,35.7c-1.2-1.2-1.8-3-1.8-5.2c0-0.9,0.1-1.8,0.3-2.8l2.2-12.5h4l-2,11.2c-0.2,1.2-0.3,2.2-0.3,3.1
			c0,1.4,0.3,2.4,0.9,3.2c0.6,0.7,1.5,1.1,2.9,1.1c1.8,0,3.2-0.6,4.1-1.9c0.9-1.3,1.5-3.1,2-5.4l2-11.2h4L199,27.7
			c-0.5,3.1-1.7,5.5-3.5,7.2s-4.1,2.6-7,2.6C186.1,37.6,184.2,36.9,183,35.7z"/>
		<path class="st1" d="M206.5,36.4c-1.3-0.8-2.3-1.8-3-3.2s-1.1-3.1-1.1-5.1c0-2.5,0.6-4.8,1.7-6.8c1.1-2,2.7-3.6,4.6-4.8
			c1.9-1.2,4.1-1.7,6.4-1.7c1,0,2.1,0.1,3.1,0.3s1.9,0.5,2.6,0.9l-1.1,3.8c-1.9-0.8-3.6-1.3-5.1-1.3c-1.7,0-3.1,0.4-4.2,1.2
			c-1.2,0.8-2,1.9-2.6,3.3s-0.9,2.9-0.9,4.6c0,4,1.7,5.9,5.1,5.9c1.6,0,3.4-0.4,5.5-1.3l-0.2,3.8c-0.8,0.4-1.8,0.7-2.9,0.9
			c-1.1,0.2-2.2,0.3-3.2,0.3C209.4,37.6,207.8,37.2,206.5,36.4z"/>
		<path class="st1" d="M224.5,15.2h4l-3.9,21.9h-4L224.5,15.2z M227,25.5l8.9-10.3h4.9l-9.4,10.3l5.5,11.6h-4.4L227,25.5z"/>
	</g>
</g>
<path class="st2" d="M5.2,40.4L18,14.7c1.1-2.2,3.3-3.6,5.7-3.6H39l-3.2,6.4H27c-2.4,0-4.7,1.4-5.7,3.6L19.8,24h12.8l-3.2,6.4h-8.8
	c-2.4,0-4.7,1.4-5.7,3.6L9.5,44.7l9.3,9.3c2.1,2.1,5.6,2.1,7.7,0l17.2-17.2c1-1,1.6-2.4,1.6-3.8V5.9c0-3-2.4-5.4-5.4-5.4H5.5
	C2.5,0.4,0,2.9,0,5.9V33c0,1.4,0.6,2.8,1.6,3.8L5.2,40.4z"/>
</svg>
