<?xml version="1.0" encoding="utf-8"?>
<!-- Generator: Adobe Illustrator 23.0.3, SVG Export Plug-In . SVG Version: 6.00 Build 0)  -->
<svg version="1.1" id="Calque_1" xmlns="http://www.w3.org/2000/svg" xmlns:xlink="http://www.w3.org/1999/xlink" x="0px" y="0px"
	 viewBox="0 0 250 250" style="enable-background:new 0 0 250 250;" xml:space="preserve">
<style type="text/css">
	.st0{fill:#FFFFFF;}
	.st1{fill:none;}
</style>
<g>
	<g>
		<g>
			<g>
				<path class="st0" d="M5.3,190.5h17.9l-0.9,5.3H9.9l-1.2,6.4h9.6l-0.9,5.3H7.8l-2.3,13H0L5.3,190.5z"/>
				<path class="st0" d="M27.4,190.5h5.5l-5.3,30h-5.5L27.4,190.5z"/>
				<path class="st0" d="M39.6,190.5h17.9l-0.9,5.3H44.2l-1.2,6.4h9.6l-0.9,5.3h-9.6l-2.3,13h-5.5L39.6,190.5z"/>
				<path class="st0" d="M66.9,195.8h-8.2l0.9-5.3h21.8l-0.9,5.3h-8.2l-4.4,24.7h-5.5L66.9,195.8z"/>
				<path class="st0" d="M89.9,207.2l-7.1-16.7h5.9l4.9,12l9-12h5.9l-13,16.7L93,220.5h-5.5L89.9,207.2z"/>
				<path class="st0" d="M126.5,195.8h-8.2l0.9-5.3h21.8l-0.9,5.3h-8.2l-4.4,24.7h-5.5L126.5,195.8z"/>
				<path class="st0" d="M145.7,190.5h10c3,0,5.3,0.6,7,1.9c1.7,1.2,2.5,3.2,2.5,5.8c0,4.1-2.2,7.3-6.6,9.7l4.3,12.6h-5.7l-4-11.2
					h-5.3l-2,11.2h-5.5L145.7,190.5z M153.1,204.2c1.8,0,3.3-0.5,4.4-1.5s1.7-2.3,1.7-4.1c0-2.4-1.4-3.6-4.1-3.6h-4.7l-1.6,9.1
					H153.1z"/>
				<path class="st0" d="M171,218.6c-1.7-1.7-2.5-4.1-2.5-7.2c0-1.3,0.1-2.5,0.3-3.8l3.1-17.2h5.5l-2.7,15.3c-0.3,1.6-0.4,3-0.4,4.2
					c0,1.9,0.4,3.3,1.2,4.3c0.8,1,2.1,1.5,3.9,1.5c2.5,0,4.4-0.9,5.6-2.6c1.2-1.8,2.1-4.2,2.7-7.4l2.7-15.3h5.5l-3.1,17.2
					c-0.7,4.2-2.3,7.5-4.8,9.9c-2.4,2.4-5.6,3.6-9.6,3.6C175.1,221.1,172.6,220.3,171,218.6z"/>
				<path class="st0" d="M203.1,219.6c-1.8-1-3.2-2.5-4.2-4.4c-1-1.9-1.4-4.2-1.4-6.9c0-3.5,0.8-6.6,2.4-9.4c1.6-2.8,3.7-5,6.3-6.6
					c2.7-1.6,5.6-2.4,8.8-2.4c1.4,0,2.8,0.2,4.2,0.5c1.4,0.3,2.6,0.7,3.6,1.3l-1.6,5.2c-2.6-1.1-4.9-1.7-7-1.7
					c-2.3,0-4.2,0.6-5.8,1.7c-1.6,1.1-2.8,2.6-3.6,4.5c-0.8,1.9-1.2,4-1.2,6.3c0,5.4,2.3,8.1,7,8.1c2.1,0,4.7-0.6,7.6-1.7l-0.3,5.2
					c-1.2,0.5-2.5,1-4,1.3c-1.5,0.3-3,0.5-4.4,0.5C207.1,221.1,204.9,220.6,203.1,219.6z"/>
				<path class="st0" d="M227.7,190.5h5.5l-5.3,30h-5.5L227.7,190.5z M231.1,204.7l12.2-14.2h6.7l-12.9,14.2l7.5,15.9h-6
					L231.1,204.7z"/>
			</g>
		</g>
		<path class="st0" d="M80.9,128.3l32-64c2.7-5.4,8.3-8.9,14.3-8.9h38l-8,16h-22c-6.1,0-11.6,3.4-14.3,8.9l-3.6,7.2h31.9l-8,16h-22
			c-6.1,0-11.6,3.4-14.3,8.9l-13.3,26.7l23.3,23.3c5.3,5.3,13.9,5.3,19.1,0l42.9-42.8c2.5-2.5,4-6,4-9.6V42.4
			c0-7.5-6.1-13.5-13.5-13.5H81.6c-7.5,0-13.5,6.1-13.5,13.5v67.5c0,3.6,1.4,7,4,9.6L80.9,128.3z"/>
	</g>
	<rect class="st1" width="250" height="250"/>
</g>
</svg>
