<?xml version="1.0" encoding="utf-8"?>
<!-- Generator: Adobe Illustrator 23.0.3, SVG Export Plug-In . SVG Version: 6.00 Build 0)  -->
<svg version="1.1" id="Calque_1" xmlns="http://www.w3.org/2000/svg" xmlns:xlink="http://www.w3.org/1999/xlink" x="0px" y="0px"
	 viewBox="0 0 250 250" style="enable-background:new 0 0 250 250;" xml:space="preserve">
<style type="text/css">
	.st0{fill:#FFFFFF;}
	.st1{fill:none;}
</style>
<g>
	<path class="st0" d="M45.7,180.9L104,64.5c4.9-9.9,15-16.1,26.1-16.1h69.2l-14.6,29.1h-40.1c-11,0-21.1,6.2-26.1,16.1l-6.5,13h58.1
		l-14.6,29.1h-40.1c-11,0-21.1,6.2-26.1,16.1l-24.1,48.6l42.3,42.3c9.6,9.6,25.2,9.6,34.8,0l78-77.9c4.6-4.6,7.2-10.9,7.2-17.4V24.6
		C227.6,11,216.6,0,203,0H47C33.4,0,22.4,11,22.4,24.6v122.8c0,6.5,2.6,12.8,7.2,17.4L45.7,180.9z"/>
</g>
<rect class="st1" width="250" height="250"/>
</svg>
